{
    "asset" : {
        "generator" : "Khronos glTF Blender I/O v1.7.33",
        "version" : "2.0"
    },
    "scene" : 0,
    "scenes" : [
        {
            "name" : "Scene",
            "nodes" : [
                0
            ]
        }
    ],
    "nodes" : [
        {
            "mesh" : 0,
            "name" : "duck-float",
            "rotation" : [
                0.7071068286895752,
                0,
                0,
                0.7071067094802856
            ],
            "scale" : [
                0.04999998211860657,
                0.04999998211860657,
                0.04999998211860657
            ]
        }
    ],
    "materials" : [
        {
            "doubleSided" : true,
            "name" : "blinn17SG",
            "pbrMetallicRoughness" : {
                "baseColorFactor" : [
                    0.800000011920929,
                    0.800000011920929,
                    0.800000011920929,
                    1
                ],
                "metallicFactor" : 0,
                "roughnessFactor" : 0.5
            }
        },
        {
            "doubleSided" : true,
            "name" : "blinn18SG",
            "pbrMetallicRoughness" : {
                "baseColorFactor" : [
                    0.800000011920929,
                    0.800000011920929,
                    0.800000011920929,
                    1
                ],
                "metallicFactor" : 0,
                "roughnessFactor" : 0.5
            }
        },
        {
            "doubleSided" : true,
            "name" : "blinn16SG",
            "pbrMetallicRoughness" : {
                "baseColorFactor" : [
                    0.800000011920929,
                    0.800000011920929,
                    0.800000011920929,
                    1
                ],
                "metallicFactor" : 0,
                "roughnessFactor" : 0.5
            }
        },
        {
            "doubleSided" : true,
            "name" : "blinn19SG",
            "pbrMetallicRoughness" : {
                "baseColorFactor" : [
                    0.800000011920929,
                    0.800000011920929,
                    0.800000011920929,
                    1
                ],
                "metallicFactor" : 0,
                "roughnessFactor" : 0.5
            }
        }
    ],
    "meshes" : [
        {
            "name" : "duck-float",
            "primitives" : [
                {
                    "attributes" : {
                        "POSITION" : 0,
                        "NORMAL" : 1,
                        "TEXCOORD_0" : 2
                    },
                    "indices" : 3,
                    "material" : 0
                },
                {
                    "attributes" : {
                        "POSITION" : 4,
                        "NORMAL" : 5,
                        "TEXCOORD_0" : 6
                    },
                    "indices" : 7,
                    "material" : 1
                },
                {
                    "attributes" : {
                        "POSITION" : 8,
                        "NORMAL" : 9,
                        "TEXCOORD_0" : 10
                    },
                    "indices" : 11,
                    "material" : 2
                },
                {
                    "attributes" : {
                        "POSITION" : 12,
                        "NORMAL" : 13,
                        "TEXCOORD_0" : 14
                    },
                    "indices" : 15,
                    "material" : 3
                }
            ]
        }
    ],
    "accessors" : [
        {
            "bufferView" : 0,
            "componentType" : 5126,
            "count" : 971,
            "max" : [
                96.07623291015625,
                90.10106658935547,
                -51.30073165893555
            ],
            "min" : [
                -95.76667022705078,
                -155.4075469970703,
                -199.19705200195312
            ],
            "type" : "VEC3"
        },
        {
            "bufferView" : 1,
            "componentType" : 5126,
            "count" : 971,
            "type" : "VEC3"
        },
        {
            "bufferView" : 2,
            "componentType" : 5126,
            "count" : 971,
            "type" : "VEC2"
        },
        {
            "bufferView" : 3,
            "componentType" : 5123,
            "count" : 4464,
            "type" : "SCALAR"
        },
        {
            "bufferView" : 4,
            "componentType" : 5126,
            "count" : 472,
            "max" : [
                32.85914611816406,
                130.28712463378906,
                -123.15994262695312
            ],
            "min" : [
                -33.72123336791992,
                64.92294311523438,
                -166.61288452148438
            ],
            "type" : "VEC3"
        },
        {
            "bufferView" : 5,
            "componentType" : 5126,
            "count" : 472,
            "type" : "VEC3"
        },
        {
            "bufferView" : 6,
            "componentType" : 5126,
            "count" : 472,
            "type" : "VEC2"
        },
        {
            "bufferView" : 7,
            "componentType" : 5123,
            "count" : 1644,
            "type" : "SCALAR"
        },
        {
            "bufferView" : 8,
            "componentType" : 5126,
            "count" : 754,
            "max" : [
                28.186723709106445,
                96.00556182861328,
                -152.511474609375
            ],
            "min" : [
                -28.517778396606445,
                64.33992767333984,
                -188.01812744140625
            ],
            "type" : "VEC3"
        },
        {
            "bufferView" : 9,
            "componentType" : 5126,
            "count" : 754,
            "type" : "VEC3"
        },
        {
            "bufferView" : 10,
            "componentType" : 5126,
            "count" : 754,
            "type" : "VEC2"
        },
        {
            "bufferView" : 11,
            "componentType" : 5123,
            "count" : 3960,
            "type" : "SCALAR"
        },
        {
            "bufferView" : 12,
            "componentType" : 5126,
            "count" : 166,
            "max" : [
                22.920106887817383,
                96.3055191040039,
                -164.4491729736328
            ],
            "min" : [
                -23.251161575317383,
                92.18091583251953,
                -180.468017578125
            ],
            "type" : "VEC3"
        },
        {
            "bufferView" : 13,
            "componentType" : 5126,
            "count" : 166,
            "type" : "VEC3"
        },
        {
            "bufferView" : 14,
            "componentType" : 5126,
            "count" : 166,
            "type" : "VEC2"
        },
        {
            "bufferView" : 15,
            "componentType" : 5123,
            "count" : 600,
            "type" : "SCALAR"
        }
    ],
    "bufferViews" : [
        {
            "buffer" : 0,
            "byteLength" : 11652,
            "byteOffset" : 0
        },
        {
            "buffer" : 0,
            "byteLength" : 11652,
            "byteOffset" : 11652
        },
        {
            "buffer" : 0,
            "byteLength" : 7768,
            "byteOffset" : 23304
        },
        {
            "buffer" : 0,
            "byteLength" : 8928,
            "byteOffset" : 31072
        },
        {
            "buffer" : 0,
            "byteLength" : 5664,
            "byteOffset" : 40000
        },
        {
            "buffer" : 0,
            "byteLength" : 5664,
            "byteOffset" : 45664
        },
        {
            "buffer" : 0,
            "byteLength" : 3776,
            "byteOffset" : 51328
        },
        {
            "buffer" : 0,
            "byteLength" : 3288,
            "byteOffset" : 55104
        },
        {
            "buffer" : 0,
            "byteLength" : 9048,
            "byteOffset" : 58392
        },
        {
            "buffer" : 0,
            "byteLength" : 9048,
            "byteOffset" : 67440
        },
        {
            "buffer" : 0,
            "byteLength" : 6032,
            "byteOffset" : 76488
        },
        {
            "buffer" : 0,
            "byteLength" : 7920,
            "byteOffset" : 82520
        },
        {
            "buffer" : 0,
            "byteLength" : 1992,
            "byteOffset" : 90440
        },
        {
            "buffer" : 0,
            "byteLength" : 1992,
            "byteOffset" : 92432
        },
        {
            "buffer" : 0,
            "byteLength" : 1328,
            "byteOffset" : 94424
        },
        {
            "buffer" : 0,
            "byteLength" : 1200,
            "byteOffset" : 95752
        }
    ],
    "buffers" : [
        {
            "byteLength" : 96952,
            "uri" : "data:application/octet-stream;base64,"
        }
    ]
}
